15_ID_stride3.mot
nRows=15
nColumns=38

name 15_ID_stride3.mot
datacolumns 38
datarows 15
range 1.3950000000 1.4650000000
endheader
time	pelvis_tilt_moment	pelvis_list_moment	pelvis_rotation_moment	pelvis_tx_force	pelvis_ty_force	pelvis_tz_force	hip_flexion_r_moment	hip_adduction_r_moment	hip_rotation_r_moment	knee_angle_r_moment	ankle_angle_r_moment	subtalar_angle_r_moment	mtp_angle_r_moment	hip_flexion_l_moment	hip_adduction_l_moment	hip_rotation_l_moment	knee_angle_l_moment	ankle_angle_l_moment	subtalar_angle_l_moment	mtp_angle_l_moment	lumbar_extension_moment	lumbar_bending_moment	lumbar_rotation_moment	arm_flex_r_moment	arm_add_r_moment	arm_rot_r_moment	elbow_flex_r_moment	pro_sup_r_moment	wrist_flex_r_moment	wrist_dev_r_moment	arm_flex_l_moment	arm_add_l_moment	arm_rot_l_moment	elbow_flex_l_moment	pro_sup_l_moment	wrist_flex_l_moment	wrist_dev_l_moment
        1.3950000000	       18.1721774448	      -20.0079515483	        2.6901916288	      -55.5612078608	      -56.9868447762	       25.4212957442	      -18.8309349196	      -16.4118759718	        3.3311877500	       -2.1417178117	        2.3291591128	       -0.6010861162	        0.1129910292	        0.6234302141	      -19.8534110304	       -0.9690509077	      -20.0248985692	      -93.2594546348	       16.1646268381	       -0.0655073284	        1.3732784742	       -7.2702438903	       30.1511167577	        3.5905580297	        3.9933459957	        3.3628263808	        1.7338499713	        0.0703542988	        0.3883831722	       -0.0490081765	       -2.6605400449	       -2.5351319935	       -2.7209624310	        1.3079909233	       -0.1190438403	       -0.2807842589	       -0.1654939298	
        1.4000000000	       16.0728202360	       -6.1436340399	        2.0049609020	      -54.4445325862	      -66.1471254589	       21.6501084207	      -19.4297535430	      -16.4109753281	        2.5963530527	       -2.1980832131	        2.4011310883	       -0.5982117790	        0.1191211748	       13.7312786354	      -14.8754829181	       -1.0059842561	      -14.8388946529	      -76.0763459091	       14.0088125231	       -0.0487759948	       -1.3795025229	       -7.8035510094	       28.5223401603	        2.8877452084	        3.5496489737	        3.1259325603	        1.1290358512	        0.0766888589	        0.3535429551	       -0.0012034586	       -3.1334184522	       -2.4547936007	       -2.5322025122	        0.6719628351	       -0.1015283385	       -0.2734359816	       -0.1062050475	
        1.4050000000	       17.5745820080	       13.9403463812	        1.3194429602	      -46.2829158635	      -83.1020884975	       13.2716396738	      -19.8715764404	      -16.0375148439	        1.8484203508	       -2.2498631830	        2.4767540415	       -0.6016219172	        0.1259058320	       31.5167543304	       -7.7955078750	       -0.2447599768	       -5.6473282859	      -58.5728661304	       11.9870511775	       -0.0210702328	       -3.4736470767	       -8.4570153024	       26.8943259022	        2.1740766293	        3.0505621384	        2.8630210915	        0.5464362876	        0.0823539286	        0.3174852537	        0.0442854403	       -3.6420490167	       -2.2959471377	       -2.3034907578	        0.0441082339	       -0.0834528702	       -0.2626954085	       -0.0473203116	
        1.4100000000	       20.0208045962	       30.7206769970	        1.1561742971	      -34.0795117298	     -106.8092604917	        5.1324424586	      -20.2864959016	      -15.2836030552	        1.0859439278	       -2.3099649165	        2.5441995016	       -0.6082708086	        0.1323712356	       45.1034541167	       -0.4211600333	        0.4309786858	        1.7453168732	      -43.0184274820	       10.0944167648	        0.0183137120	       -5.4275369847	       -9.1415121484	       25.1114660013	        1.4971073292	        2.4971796022	        2.5601371994	        0.0061465429	        0.0864468752	        0.2787921104	        0.0853564576	       -4.1064432348	       -2.0520932644	       -2.0311028437	       -0.5515766146	       -0.0650821983	       -0.2475280721	        0.0092948494	
        1.4150000000	       20.0718445121	       31.8672000497	        1.4627944474	      -21.0513381910	     -133.2408737270	        2.2918323040	      -20.8496337912	      -13.9977340138	        0.2822881560	       -2.4526409038	        2.5830960811	       -0.6138930761	        0.1375236865	       45.2800258576	        5.1922751079	        0.3655922068	        1.6094422448	      -31.9696076463	        8.4105927665	        0.0689347049	       -7.5645549801	       -9.7371559662	       23.0209842682	        0.8928770570	        1.8922324621	        2.2055349512	       -0.4651569589	        0.0868085246	        0.2363848397	        0.1195044165	       -4.4528999596	       -1.7129749274	       -1.7087204911	       -1.0825093443	       -0.0467543780	       -0.2264804121	        0.0612194815	
        1.4200000000	       18.0101672220	       24.2807609932	        2.2419699418	       -9.1780551696	     -147.8594535817	        1.3216594811	      -21.6964876584	      -12.0365850319	       -0.5743958324	       -2.8023404742	        2.5937251994	       -0.6157424211	        0.1402857079	       36.7226208127	        8.6289668507	        0.1318882997	       -4.0050521272	      -25.1762772041	        6.8565967262	        0.1284917285	       -9.9494564399	      -10.1494023209	       20.5243586145	        0.3819988390	        1.2427895124	        1.7942103254	       -0.8317228445	        0.0852072317	        0.1900494455	        0.1429573055	       -4.5874621652	       -1.2716654806	       -1.3319846516	       -1.5080555891	       -0.0289508667	       -0.1982552893	        0.1055127177	
        1.4250000000	       12.5837248735	        3.0934143494	        2.7188881486	        0.9085207049	     -149.8509414137	        0.6039998213	      -22.9661525642	       -9.2360417308	       -1.4877107153	       -3.5950552565	        2.5622017135	       -0.6120463156	        0.1410858487	       18.0902767808	       10.3798349235	        0.1344672338	      -15.3846491429	      -21.5379384201	        5.3186300380	        0.1942977263	      -12.5145361403	      -10.3780682939	       17.5350767415	       -0.0301950889	        0.5549718731	        1.3223626658	       -1.0852504029	        0.0776954658	        0.1398659722	        0.1559285705	       -4.5665885853	       -0.7163656100	       -0.8946939502	       -1.8142043357	       -0.0121028327	       -0.1611826976	        0.1406149924	
        1.4300000000	        6.3542236718	       -8.9087617993	        1.9435381257	        9.9865292305	     -119.6305992974	      -14.3789753097	      -24.5031779725	       -5.6806882697	       -2.4000591519	       -4.8721496528	        2.5016168349	       -0.6053106860	        0.1397121156	       14.0134974298	       11.8842168754	        1.1582057648	      -15.5118884018	      -13.4323742712	        2.9792105616	        0.2607246949	      -14.8512813673	      -10.4186715890	       14.1434683713	       -0.3293636978	       -0.1529023722	        0.8042340402	       -1.1424012333	        0.0659298504	        0.0876789732	        0.1523760775	       -4.3724288143	       -0.0590512896	       -0.4050821976	       -1.9319074207	        0.0029874173	       -0.1159173555	        0.1630044071	
        1.4350000000	        2.0763367032	      -10.8805475377	        1.4908946512	       19.6287803902	      -52.9282886512	      -47.3787400254	      -26.1698940844	       -1.3907392409	       -3.2447601040	       -6.6659641815	        2.4164753962	       -0.5973199228	        0.1362990306	       19.0924393133	       14.9306429855	        2.6020643333	       -9.1977260873	       -0.1975581956	        0.4966347391	        0.3229113998	      -16.6193925437	      -10.4117873276	       10.4902906176	       -0.5146145868	       -0.8586199939	        0.2584515060	       -1.0831279006	        0.0498258681	        0.0356053783	        0.1371541136	       -3.9849249713	        0.6815351472	        0.1207038893	       -1.9007688499	        0.0157821739	       -0.0638061429	        0.1696665900	
        1.4400000000	        1.7151308953	      -17.3869655724	        1.8804349166	       31.0937601602	       11.1737196211	      -60.0709273867	      -27.5829667678	        3.4886278058	       -3.9609459117	       -8.7849479856	        2.3263844145	       -0.5903109650	        0.1314738782	       19.6075712715	       21.0960040461	        3.7741721551	       -6.6612128116	        4.3538062699	       -0.1290064201	        0.3755133925	      -17.4505071285	      -10.3954818685	        6.8410096521	       -0.5867624216	       -1.5309542798	       -0.2823004974	       -0.8769348785	        0.0311702969	       -0.0136204382	        0.1093006413	       -3.4897925872	        1.4534115243	        0.6484680801	       -1.7431546579	        0.0261170033	       -0.0089646595	        0.1686186385	
        1.4450000000	        3.2762438792	      -39.7426678517	        4.2415696995	       43.0484371652	       57.6609151127	      -59.1575104831	      -28.4717075928	        8.8226441976	       -4.4943894964	      -10.9446324608	        2.2441812122	       -0.5834453980	        0.1257486799	        4.8677371932	       28.7591465202	        4.7122992316	      -13.9127565531	        3.0389063662	        0.3246772429	        0.4106071047	      -17.6053357256	      -10.3745670230	        3.5624465714	       -0.5977666187	       -2.1310783964	       -0.7743273377	       -0.6134612560	        0.0127517873	       -0.0568042422	        0.0771052459	       -2.9664450907	        2.1793253215	        1.1284720897	       -1.5134122610	        0.0341486379	        0.0423082678	        0.1586189101	
        1.4500000000	        2.4465822498	      -51.6992077420	        7.1358922913	       52.1427183079	      105.2331020210	      -60.5212530130	      -28.8878605707	       14.4667096025	       -4.8735202053	      -12.9164243487	        2.1724220114	       -0.5731259695	        0.1192934847	       -2.3332774187	       34.2596486447	        5.4626872660	      -17.0996256737	        3.0992298282	        0.4344378653	        0.4284741790	      -16.8498671078	      -10.1473868061	        0.8479361630	       -0.5502038966	       -2.6416188275	       -1.1929800707	       -0.3638708647	       -0.0033066736	       -0.0927261827	        0.0468717908	       -2.4846441820	        2.8065285510	        1.5318166411	       -1.2922249359	        0.0404381240	        0.0858733352	        0.1470361364	
        1.4550000000	       -0.0300146375	      -52.7881711711	       10.7694480315	       58.7764400749	      109.6326180283	      -58.3075515008	      -29.4189977448	       20.1152510914	       -4.9142979286	      -14.6347291345	        2.0960797299	       -0.5554524297	        0.1120407109	       -4.0715938603	       36.5828239313	        5.6928242808	      -18.4713448420	        3.0164657112	        0.4993924591	        0.4230895330	      -15.7071967689	       -9.5297330780	       -0.7939016726	       -0.5004409490	       -3.0284473903	       -1.4897878084	       -0.2811061308	       -0.0129381086	       -0.1183686605	        0.0305873910	       -2.1487433534	        3.2451119184	        1.8033627594	       -1.2245592768	        0.0456908536	        0.1132773973	        0.1437620241	
        1.4600000000	       -5.2547341054	      -49.8211481300	       15.1954239501	       63.7512704944	       93.5708705568	      -49.0305728872	      -30.2340316297	       25.4150537777	       -4.8214231993	      -16.1643609690	        2.0148533437	       -0.5292918674	        0.1042849101	       -3.4912183291	       36.6030088124	        5.6305001966	      -18.6111576550	        2.6978620115	        0.5128405527	        0.3938380525	      -14.2695286828	       -8.1089974054	       -1.1306962602	       -0.4613491298	       -3.2768848481	       -1.6246723376	       -0.3043585587	       -0.0148244453	       -0.1310622944	        0.0288654558	       -2.0588354023	        3.4230777377	        1.8747936678	       -1.2490522082	        0.0500439781	        0.1194644604	        0.1455189937	
        1.4650000000	      -12.3256810153	      -38.1275090799	       20.1571613698	       68.1566043301	       32.3514641923	      -32.6924122962	      -31.5250003512	       29.8029433307	       -4.2885320444	      -17.6706780256	        1.9325341314	       -0.5010387805	        0.0967597579	        1.1903509485	       33.8356785295	        5.0250817430	      -17.6766328533	        2.2075018578	        0.4854562545	        0.3380600548	      -12.8270484927	       -5.7343661280	       -0.5459987294	       -0.4277064870	       -3.3706740341	       -1.6480584864	       -0.5192083153	       -0.0110728101	       -0.1338865862	        0.0421182831	       -2.0717551516	        3.4424892551	        1.8626259182	       -1.4493815390	        0.0528869813	        0.1125999968	        0.1578083212	
